<svg width="250" xmlns="http://www.w3.org/2000/svg" height="250" fill="none"><g class="fills"><rect rx="0" ry="0" width="250" height="250" class="frame-background"/></g><g style="fill: rgb(0, 0, 0);" class="frame-children"><path d="M53.125 25C37.592 25 25 37.592 25 53.125v143.75C25 212.408 37.592 225 53.125 225h143.75C212.408 225 225 212.408 225 196.875V53.125C225 37.592 212.408 25 196.875 25H53.125Zm50.375 78.5a9.375 9.375 0 0 0-.23-13.02 9.375 9.375 0 0 0-13.02-.23l-28.125 28.125a9.374 9.374 0 0 0 0 13.25L90.25 159.75a9.375 9.375 0 0 0 13.02-.23 9.375 9.375 0 0 0 .23-13.02L82 125l21.5-21.5Zm56.25-13.25a9.374 9.374 0 1 0-13.25 13.25L168 125l-21.5 21.5a9.374 9.374 0 1 0 13.25 13.25l28.125-28.125a9.374 9.374 0 0 0 0-13.25L159.75 90.25Z" clip-rule="evenodd" fill-rule="evenodd" style="fill: rgb(144, 213, 237); fill-opacity: 1;" class="fills"/></g></svg>